<?xml version="1.0" encoding="utf-8"?>
<!-- Generator: Adobe Illustrator 23.0.1, SVG Export Plug-In . SVG Version: 6.00 Build 0)  -->
<svg version="1.1" id="Layer_1" xmlns="http://www.w3.org/2000/svg" xmlns:xlink="http://www.w3.org/1999/xlink" x="0px" y="0px"
	 viewBox="0 0 1052 670.2" style="enable-background:new 0 0 1052 670.2;" xml:space="preserve">
<style type="text/css">
	.st0{fill:#2D3142;}
	.st1{fill:#1872FF;}
</style>
<g id="Livello_1">
	<g id="Livello_2">
	</g>
</g>
<g id="Livello_1_copia">
	<g id="Livello_2_copia">
	</g>
	<path class="st0" d="M396,131.8L71.6,21.4C49,13.7,20.7,23.3,20.7,38.7v471.2c0,15.4,28.3,25,50.9,17.3l120-40.8l1,142
		c0.1,15.4,28.4,24.9,51,17.2l779.5-267.9c22.6-7.8,22.4-27-0.3-34.6L396,131.8z"/>
	<path class="st1" d="M335.7,233.9l-274.1-91c-19.1-6.3-43,1.6-43,14.3v388.4c0,12.7,23.9,20.6,43,14.3L163,526.2l0.9,117.1
		c0.1,12.7,24,20.5,43.1,14.2l658.5-220.8c19.1-6.4,18.9-22.2-0.2-28.5L335.7,233.9z"/>
	<path class="st0" d="M397,125.8L72.6,15.4C50,7.7,21.7,17.3,21.7,32.7v471.2c0,15.4,28.3,25,50.9,17.3l120-40.8l1,142
		c0.1,15.4,28.4,24.9,51,17.2l779.5-267.9c22.6-7.8,22.4-27-0.3-34.6L397,125.8z"/>
	<path class="st1" d="M336.7,227.9l-274.1-91c-19.1-6.3-43,1.6-43,14.3v388.4c0,12.7,23.9,20.6,43,14.3L164,520.2l0.9,117.1
		c0.1,12.7,24,20.5,43.1,14.2l658.5-220.8c19.1-6.4,18.9-22.2-0.2-28.5L336.7,227.9z"/>
</g>
</svg>
