<?xml version="1.0" standalone="no"?>
<!DOCTYPE svg PUBLIC "-//W3C//DTD SVG 20010904//EN"
 "http://www.w3.org/TR/2001/REC-SVG-20010904/DTD/svg10.dtd">
<svg version="1.0" xmlns="http://www.w3.org/2000/svg"
 width="1920.000000pt" height="1920.000000pt" viewBox="0 0 1920.000000 1920.000000"
 preserveAspectRatio="xMidYMid meet">
<metadata>
Created by potrace 1.11, written by Peter Selinger 2001-2013
</metadata>
<g transform="translate(0.000000,1920.000000) scale(0.100000,-0.100000)"
fill="#000000" stroke="none">
<path d="M4900 12857 c-3 -3 -21 -7 -40 -10 -92 -13 -190 -74 -219 -136 -23
-51 -31 -751 -37 -3225 l-4 -1978 20 -34 c41 -66 143 -106 265 -105 93 1 100
3 430 114 384 129 712 237 721 237 5 0 10 -264 12 -587 3 -458 6 -594 17 -619
31 -74 152 -125 289 -120 91 2 169 27 1071 333 333 113 2001 673 2930 984 363
121 669 224 680 229 11 5 36 13 55 19 19 5 404 134 855 286 451 152 825 278
830 279 6 2 17 6 25 9 8 3 74 24 145 48 152 49 201 72 235 110 14 15 41 32 60
37 19 6 134 45 255 87 121 42 245 85 275 95 30 10 120 41 200 68 80 28 270 93
424 146 292 100 351 127 386 175 24 35 44 131 36 176 -7 34 -63 94 -113 119
-28 14 -182 67 -908 311 -121 41 -501 169 -845 285 -344 116 -744 251 -890
300 -146 49 -566 191 -935 315 -368 125 -749 253 -845 285 -96 33 -483 163
-860 290 -377 127 -777 262 -890 300 -113 38 -365 123 -560 190 -195 67 -413
141 -485 165 -71 24 -256 87 -410 140 -154 53 -287 98 -295 100 -8 2 -161 54
-340 116 -179 61 -363 124 -410 139 -47 16 -258 88 -470 160 -212 73 -412 140
-445 149 -56 16 -204 28 -215 18z"/>
</g>
</svg>
